# xmcd
#
# Track frame offsets:
#	150
#	14944
#	33324
#	48736
#	59331
#	74852
#	86718
#	99765
#	113711
#	130388
#	146922
#	164873
#	183141
#	200539
#	217642
#	238314
#	258174
#	277125
#
# Disc length: 3863 seconds
#
# Revision: 1
# Processed by: cddbd v1.5.2PL0 Copyright (c) Steve Scherf et al.
# Submitted via: audiograbber 1.83.01
#
DISCID=1e0f1512
DTITLE=Holland and Dozier - Holland and Dozier
DYEAR=2012
DGENRE=Soul 70's
TTITLE0=Don't Leave Me (Vocal)
TTITLE1=Why Can't We Be Lovers
TTITLE2=Don't Leave Me Starving For Your Love (Part 1)
TTITLE3=Don't Leave Me Starving For Your Love (Part 2)
TTITLE4=Slipping Away
TTITLE5=Can't Get Enough
TTITLE6=New Breed Kinda Woman
TTITLE7=If You Don't Want To Be In My Life
TTITLE8=I'm Gonna Hijack Ya, Take What I Want
TTITLE9=You Took Me From A World Outside
TTITLE10=I'm So Glad (Part 1)
TTITLE11=Super Woman (You Ain't No Ordinary Woman)
TTITLE12=Let's Get Together
TTITLE13=Don't Stop Playing Our Song
TTITLE14=The Picture Will Never Change
TTITLE15=Lady By Day
TTITLE16=Where Did We Go Wrong
TTITLE17=Don't Leave Me (Instrumental)
EXTD=
EXTT0=
EXTT1=
EXTT2=
EXTT3=
EXTT4=
EXTT5=
EXTT6=
EXTT7=
EXTT8=
EXTT9=
EXTT10=
EXTT11=
EXTT12=
EXTT13=
EXTT14=
EXTT15=
EXTT16=
EXTT17=
PLAYORDER=
